<?xml version="1.0" encoding="UTF-8" standalone="no"?>
<svg
   xmlns:dc="http://purl.org/dc/elements/1.1/"
   xmlns:cc="http://creativecommons.org/ns#"
   xmlns:rdf="http://www.w3.org/1999/02/22-rdf-syntax-ns#"
   xmlns:svg="http://www.w3.org/2000/svg"
   xmlns="http://www.w3.org/2000/svg"
   xmlns:sodipodi="http://sodipodi.sourceforge.net/DTD/sodipodi-0.dtd"
   xmlns:inkscape="http://www.inkscape.org/namespaces/inkscape"
   width="198mm"
   height="194mm"
   viewBox="0 0 198 194"
   version="1.1"
   id="svg8"
   inkscape:version="1.0.2-2 (e86c870879, 2021-01-15)"
   sodipodi:docname="icon_svg.svg">
  <defs
     id="defs2" />
  <sodipodi:namedview
     id="base"
     pagecolor="#ffffff"
     bordercolor="#666666"
     borderopacity="1.0"
     inkscape:pageopacity="0.0"
     inkscape:pageshadow="2"
     inkscape:zoom="0.49497475"
     inkscape:cx="89.264324"
     inkscape:cy="285.4675"
     inkscape:document-units="mm"
     inkscape:current-layer="layer2"
     inkscape:document-rotation="0"
     showgrid="false"
     inkscape:window-width="1366"
     inkscape:window-height="715"
     inkscape:window-x="-8"
     inkscape:window-y="-8"
     inkscape:window-maximized="1" />
  <metadata
     id="metadata5">
    <rdf:RDF>
      <cc:Work
         rdf:about="">
        <dc:format>image/svg+xml</dc:format>
        <dc:type
           rdf:resource="http://purl.org/dc/dcmitype/StillImage" />
        <dc:title></dc:title>
      </cc:Work>
    </rdf:RDF>
  </metadata>
  <g
     inkscape:label="Layer 1"
     inkscape:groupmode="layer"
     id="layer1" />
  <g
     inkscape:groupmode="layer"
     id="layer2"
     inkscape:label="Layer 2">
    <g
       id="g918"
       transform="translate(-8.0127135,-52.892506)">
      <ellipse
         style="fill:#f48f51;fill-opacity:0.991968;fill-rule:evenodd;stroke:none;stroke-width:0.763945;stroke-miterlimit:4;stroke-dasharray:none;stroke-opacity:1"
         id="path27"
         cx="106.82395"
         cy="149.37547"
         rx="96.997086"
         ry="95.082535" />
      <path
         style="fill:#ffffff;fill-opacity:1;stroke:none;stroke-width:5.265;stroke-linecap:butt;stroke-linejoin:miter;stroke-miterlimit:4;stroke-dasharray:none;stroke-opacity:1"
         d="m 91.940717,202.05576 c 0,0 -4.56158,-2.7991 -5.87993,-5.0113 -1.97017,-3.30596 -2.3571,-7.39584 -2.40543,-11.29214 -0.0906,-7.30806 1.68701,-14.56216 3.47451,-21.64883 3.11469,-12.34842 7.27325,-24.49617 12.56167,-36.08139 2.005273,-4.39292 3.350073,-9.66833 7.216273,-12.56166 1.83383,-1.37238 4.39157,-1.64212 6.68174,-1.60362 2.67973,0.045 7.75082,2.13816 7.75082,2.13816 l -19.77795,41.96131 2.40542,2.93997 c 0,0 7.77852,-4.97445 11.22533,-8.01809 3.45004,-3.04649 6.79434,-6.33135 9.35443,-10.15624 2.35004,-3.51107 3.84936,-7.54136 5.34539,-11.49259 13.25045,-34.9962 -53.049453,-23.03727 -53.721173,2.67269 0,0 -2.8917,-3.15503 -3.74178,-5.07812 -0.9183,-2.07744 -1.27921,-4.4111 -1.33634,-6.68173 -0.0612,-2.43091 0.0863,-4.70757 1.25806,-6.8383 7.54397,-13.71782 66.563063,-22.782077 71.171983,6.8383 0.55216,3.54863 -0.27897,7.25864 -1.33635,10.69078 -1.20831,3.92203 -3.19691,7.64045 -5.61266,10.95805 -2.74407,3.7685 -6.33199,6.87576 -9.88897,9.88897 -3.50858,2.97221 -7.29877,5.62511 -11.22533,8.01808 -3.16423,1.92838 -9.88897,5.07813 -9.88897,5.07813 4.37834,6.8216 9.26613,13.30356 15.76891,18.70886 0,0 6.64789,-7.61488 9.88897,-11.49259 3.12755,-3.74188 9.22079,-11.35896 9.22079,-11.35896 l 2.27179,1.46999 c 0,0 -5.75955,10.13942 -8.81989,15.10072 -2.31568,3.75409 -4.39742,7.6991 -7.21627,11.09169 -1.65111,1.98718 -3.16181,4.5279 -5.61267,5.3454 -1.44662,0.48253 -3.12992,0.0374 -4.54358,-0.53455 -7.88796,-3.19148 -20.633693,-24.21191 -19.510673,-23.78698 l -1.87089,-0.80181 c 0,0 -1.41003,8.35342 -1.87088,12.56167 -0.6903,6.30336 -1.33635,18.97613 -1.33635,18.97613 z"
         id="path872"
         sodipodi:nodetypes="cassssscccssscssssssssccaccaaasccac" />
    </g>
  </g>
</svg>
